# xmcd
#
# Track frame offsets:
#	150
#	12537
#	23194
#	36181
#	48260
#	60959
#	73089
#	86123
#	99087
#	111046
#	122552
#	134854
#	149495
#	160513
#	173419
#	185743
#
# Disc length: 2649 seconds
#
# Revision: 0
# Processed by: cddbd v1.5.1PL2 Copyright (c) Steve Scherf et al.
# Submitted via: dBpowerAMP V4.0
#
DISCID=d70a5710
DTITLE=Eddy Arnold - Greatest Hits and Favorites
DYEAR=2005
DGENRE=Country
TTITLE0=Just A Little Lovin' (Will Go A Long Way)
TTITLE1=The Cattle Call
TTITLE2=Then I Turned And Walked Slowly Away
TTITLE3=There's Not A Thing (I Wouldn't Do For You)
TTITLE4=The Lilly Of The Valley
TTITLE5=The Echo Of Your Footsteps
TTITLE6=Take Me In Your Arms And Hold Me
TTITLE7=Seven Years With The Wrong Woman
TTITLE8=Mama And Daddy Broke My Heart
TTITLE9=Little Angel With The Dirty Face
TTITLE10=The Prisoner's Song
TTITLE11=Rockin' Alone In An Old Rockin' Chair
TTITLE12=The Lovebug Itch
TTITLE13=Prison Without Walls
TTITLE14=Tie Me To Your Apron Strings Again
TTITLE15=A Million Miles From Your Heart
EXTD=
EXTT0=
EXTT1=
EXTT2=
EXTT3=
EXTT4=
EXTT5=
EXTT6=
EXTT7=
EXTT8=
EXTT9=
EXTT10=
EXTT11=
EXTT12=
EXTT13=
EXTT14=
EXTT15=
PLAYORDER=
